<svg xmlns="http://www.w3.org/2000/svg" xmlns:xlink="http://www.w3.org/1999/xlink"><symbol viewBox="0 0 120.78 117.79" id="github" xmlns="http://www.w3.org/2000/svg"><defs><style>.acls-1,.acls-2{fill:#0f0c0d}.acls-1{fill-rule:evenodd}</style></defs><g id="aLayer_2" data-name="Layer 2"><g id="aLayer_1-2" data-name="Layer 1"><path class="acls-1" d="M60.39 0A60.39 60.39 0 0 0 41.3 117.69c3 .56 4.13-1.31 4.13-2.91 0-1.44-.06-6.2-.08-11.24C28.54 107.19 25 96.42 25 96.42c-2.75-7-6.7-8.84-6.7-8.84-5.48-3.75.41-3.67.41-3.67 6.06.43 9.26 6.22 9.26 6.22 5.39 9.23 14.13 6.56 17.57 5 .54-3.9 2.11-6.57 3.83-8.08-13.37-1.5-27.52-6.68-27.52-29.82A23.37 23.37 0 0 1 28.08 41c-.63-1.52-2.69-7.66.58-16 0 0 5.07-1.62 16.61 6.19a57.26 57.26 0 0 1 30.24 0C87 23.42 92.11 25 92.11 25c3.29 8.32 1.22 14.46.59 16a23.32 23.32 0 0 1 6.21 16.21c0 23.19-14.13 28.3-27.57 29.8 2.17 1.87 4.1 5.55 4.1 11.18 0 8.08-.07 14.58-.07 16.57 0 1.61 1.09 3.49 4.15 2.9A60.4 60.4 0 0 0 60.39 0z"/><path class="acls-2" d="M22.87 86.7c-.13.3-.61.39-1 .18s-.68-.61-.54-.91.6-.39 1-.19.69.61.54.91zm-.74-.55M25.32 89.43c-.29.27-.85.14-1.23-.28a.92.92 0 0 1-.18-1.25c.3-.27.84-.14 1.24.28s.47 1 .17 1.25zm-.58-.62M27.7 92.91c-.37.26-1 0-1.35-.52s-.37-1.18 0-1.44 1 0 1.35.51.37 1.19 0 1.45zm0 0M31 96.27c-.33.37-1 .27-1.55-.23a1.16 1.16 0 0 1-.34-1.54c.34-.37 1-.26 1.56.23s.68 1.18.33 1.54zm0 0M35.46 98.22c-.15.47-.83.69-1.51.49s-1.13-.76-1-1.24.82-.7 1.51-.49 1.13.76 1 1.24zm0 0M40.4 98.58c0 .5-.56.91-1.28.92s-1.31-.39-1.31-.88.57-.91 1.29-.92 1.31.39 1.31.88zm0 0M45 97.8c.09.49-.41 1-1.13 1.12s-1.35-.17-1.44-.65.42-1 1.12-1.13 1.35.17 1.44.66zm0 0"/></g></g></symbol><symbol viewBox="0 0 64 64" id="instagram" xmlns="http://www.w3.org/2000/svg"><defs><style>.bcls-1{fill:#1d1d1b}</style></defs><g id="bLayer_2" data-name="Layer 2"><path class="bcls-1" d="M58 0H6a6 6 0 0 0-6 6v52a6 6 0 0 0 6 6h52a6 6 0 0 0 6-6V6a6 6 0 0 0-6-6zM43.75 9.78a4 4 0 0 1 4-4h5a4 4 0 0 1 4 4v6.06a4 4 0 0 1-4 4h-5a4 4 0 0 1-4-4zM32 17.89A14.11 14.11 0 1 1 17.89 32 14.13 14.13 0 0 1 32 17.89zM58 60H6a2 2 0 0 1-2-2V27.14h10.58a17.94 17.94 0 0 0-.69 4.86 18.11 18.11 0 1 0 35.53-4.86H60V58a2 2 0 0 1-2 2z" id="bLayer_1-2" data-name="Layer 1"/></g></symbol><symbol viewBox="0 0 430.12 411" id="linkedin" xmlns="http://www.w3.org/2000/svg"><g data-name="Layer 2"><path d="M430.12 252v159h-92.19V262.63c0-37.27-13.33-62.71-46.7-62.71-25.47 0-40.63 17.14-47.3 33.72-2.43 5.93-3.06 14.18-3.06 22.48V411h-92.22s1.24-251.29 0-277.32h92.21V173c-.19.29-.43.61-.61.9h.61v-.9c12.25-18.87 34.13-45.82 83.1-45.82 60.67-.01 106.16 39.62 106.16 124.82zM52.18 0C20.64 0 0 20.69 0 47.91c0 26.61 20 47.94 51 47.94h.62c32.16 0 52.16-21.32 52.16-47.94C103.13 20.69 83.73 0 52.18 0zM5.48 411h92.18V133.68H5.48z" data-name="Capa 1"/></g></symbol><symbol viewBox="0 0 1411.45 119.11" id="logo" xmlns="http://www.w3.org/2000/svg"><g data-name="Layer 2"><g data-name="Layer 1"><path d="M.35 2.71c-.4 9.8-.5 109.5-.1 112.5l.5 3.8h17.7V51H21c2.3 0 2.4.2 1.8 4.9a34 34 0 0 0 .1 8.5l.7 3.6h10.9v17h5.6l-.1 7.9c0 4.4.3 8.2.6 8.5s2.9.9 5.8 1.3l5.1.6v15.8l9.3-.3 9.2-.3.2-57.5c0-31.6-.1-58.3-.4-59.3C69.4.1 68.3 0 60.7.2L52 .51l-.3 33.7L51.45 68h-9.9l-.3-8.3-.3-8.2-2.9-.3c-2.7-.3-2.8-.5-2.2-4.2a39.26 39.26 0 0 0 0-8.4l-.7-4.6H24V17.51l-2.8-.3c-2.7-.3-2.8-.6-2.6-5a81.79 81.79 0 0 0 .1-8.5L18.45 0h-18zM106.85 1.31c-.3.8-.4 4.5-.2 8.3l.3 6.9 5.5.3 5.5.3v85.8l-5.5.3-5.5.3v15l19.9.3c15.3.2 20.1-.1 20.8-1 1-1.6 1-11.9 0-13.5-.4-.6-3-1.3-5.7-1.5l-5-.3-.3-42.8-.2-42.7h5.4c6.1 0 6.6-.7 6.6-9.2 0-8.3 1.2-7.8-21.1-7.8-15.8-.01-20.1.3-20.5 1.3zM185 1.21c-.2.7-.3 27.4-.2 59.3l.2 58 9.2.3 9.2.3v-25.3l-.1-25.3 5.2-.3 5.2-.3-.2 4.3c-.1 2.4-.1 6.2-.1 8.5l.1 4.2 5.7.3 5.6.3-.2 7.8-.2 7.8 3 1.2c3.1 1.1 3.1 1.2 3.1 8.9V119h8.9c9.9 0 10.1-.2 10.1-8 0-5.8-1-7.9-3.8-8.2-2.5-.3-2.5-.4-2.3-8 .1-4.4-.2-7.9-.8-8.2s-3.2-.9-5.9-1.3l-4.8-.5v-6.7c.1-9.4-.3-10.1-6.4-10.1h-5V51h10.7l.7-3.9a39.26 39.26 0 0 0 0-8.4l-.7-4.6 5.9-.3 5.9-.3v-8.3c0-8.2 0-8.2 2.6-8.2 2.2 0 2.8-.6 3.3-3.1a28.73 28.73 0 0 0 0-11.7c-.6-2.1-1.1-2.2-9.5-2.2h-8.9v16.9l-2.7.3-2.8.3V34h-11.5v17H203V.51l-8.8-.3c-6.45-.21-8.85.1-9.2 1zM286.05 4.61a40.2 40.2 0 0 0 0 8.5l.7 3.9h-5.7c-5.1 0-5.6.2-6.2 2.5a43.44 43.44 0 0 0-.2 8.5c.4 6 .4 6-2.3 6-2.4 0-2.8.5-3.2 3.7s-.3 38.3.1 45c.2 1.8.8 2.3 3 2.3H275l-.3 8c-.4 7.9-.4 8 2.3 9a22.34 22.34 0 0 0 6.2 1h3.6l-.7 4a35.67 35.67 0 0 0 0 8l.7 4h34.4l.7-4a35.67 35.67 0 0 0 0-8l-.7-4h4.9c7.3 0 7.7-.5 7.3-9.9L333 85h2.7c1.7 0 2.8-.6 3.1-1.8.4-1.5.3-42.7-.1-47.5-.2-1.2-1.1-1.7-2.9-1.7H333V17.51l-5.8-.3-5.8-.3.6-4.4a29.54 29.54 0 0 0 0-8.4l-.7-4.1h-34.5zM315 25.21v8.3l2.8.3 2.7.3v50.5l-3.1 1.1-3 1.2.2 7.8.2 7.8-8.9.3c-13.4.4-13 .7-12.6-8.3l.4-7.6-3.1-1.2-3.1-1.1v-50.5l2.8-.3 2.7-.3V17h22zM364.05.81c-.2.4-.5 27.2-.4 59.5V119h28.8c32.4 0 30 .6 30-8 0-8.4 1-8-18.9-8-9.7 0-18.5-.3-19.6-.6-2-.5-2-1.3-1.8-49.2.1-26.8 0-49.7-.3-51C381.45.11 381 0 373 0c-4.65 0-8.65.41-8.95.81zM470.85 2.51a43.44 43.44 0 0 0-.2 8.5c.4 6 .4 6-2.3 6s-2.8.3-3.4 5.4a29.1 29.1 0 0 0 0 8.4c.6 2.8.4 3.1-2.2 3.4-2.8.3-2.8.3-3.1 8.5s-.4 8.3-2.7 8.3c-3.3 0-3.6 1.6-3.3 19.2l.3 14.7-2.7.5a3.45 3.45 0 0 0-3.1 3.3c-.7 3.6-.8 26.3-.1 28.5.5 1.5 1.8 1.8 9.5 1.8h8.9v-32.7l6.1-.7c3.4-.3 10.9-.6 16.5-.6h10.4v34h9c8.6 0 9-.1 9.1-2.3.5-7.1.6-24.7.2-27.5-.4-2.6-1.1-3.4-3.2-3.8l-2.6-.5.2-14.7c.3-17.8.1-19.2-3.2-19.2-2.3 0-2.4-.2-2.7-8.3s-.3-8.2-3.1-8.5-2.8-.6-2.6-5a81.79 81.79 0 0 0 .1-8.5c-.2-3.4-.4-3.7-3.2-3.7s-2.9 0-2.3-4.9a34 34 0 0 0-.1-8.5l-.7-3.6H483C471.55 0 471.45 0 470.85 2.51zM487.65 40c-.6 8.2.2 11 3.2 11 2.4 0 2.5.3 2.8 8.5L494 68h-22l.2-8.2c.1-8.1.2-8.3 2.7-8.6 2-.3 2.7-1 3.2-3.9a33.12 33.12 0 0 0 .1-8.4l-.6-4.9h10.5zM548.25 3.21c0 1.8 0 5.7.1 8.5l.3 5.3h-5.5c-4.4 0-5.7.4-6.1 1.7-.3 1-.5 7.9-.5 15.3s.2 14.3.5 15.2c.4 1.4 1.7 1.8 6.1 1.8h5.6l-.7 4.6a40.2 40.2 0 0 0 0 8.5l.7 3.9h39.3v35h-14.5c-8 0-15.5-.3-16.6-.6-1.8-.4-2-1.2-1.7-8.3l.3-7.8-4.7-.7c-8.2-1.1-13.1-.8-13.8 1-.9 2.4-.7 12.7.3 14.3.5.7 3.2 1.6 6.1 1.9l5.2.5-.6 3.8a34.78 34.78 0 0 0 0 7.9l.7 4h46.9l-.4-8-.3-7.9 5.5-.3 5.5-.3v-34l-5.5-.5-5.5-.5v-16l-19.7-.3-19.8-.2V17h33.2l-.6 4.3a30.24 30.24 0 0 0 0 8.5l.7 4.2h17.5l.4-3.9a60.21 60.21 0 0 0 0-8.5l-.4-4.6H595V.51l-23.2-.3L548.45 0zM727 3.91a40.22 40.22 0 0 0 0 8.5l.7 4.5-5.8.3-5.9.3v33l5.8.3 5.8.3-.7 4.9a33.56 33.56 0 0 0 0 8.4l.7 3.6H767v35h-14.5c-8 0-15.4-.3-16.5-.6-1.9-.5-2-1.2-1.7-7.9.5-8.8.6-8.7-10.6-8.9l-7.7-.1-.3 7.8c-.3 7.5-.2 7.7 2.3 8.7a19.35 19.35 0 0 0 6 1h3.5l-.6 4.4a30.51 30.51 0 0 0 0 8l.7 3.6 23.2-.2 23.2-.3v-15l5.5-.5 5.5-.5v-34l-5.6-.3-5.5-.3.4-5.9a43.13 43.13 0 0 0-.2-8.5l-.6-2.5H734V17h33.4l-.6 4.9a34 34 0 0 0 .1 8.5l.7 3.6h17.9V17h-11.6l.4-6a43.44 43.44 0 0 0-.2-8.5l-.6-2.5h-45.8zM828.85 1.41c-.3.8-.4 4.7-.2 8.5L829 17h-2.7c-3.4 0-4.2 2.5-3.6 11 .4 6 .4 6-2.3 6-2.4 0-2.7.4-3.4 4.6a33.69 33.69 0 0 0 0 8.4c.6 3.7.5 3.9-2.2 4.2l-2.8.3-.3 16.5-.2 16.6-3 1.1-2.9 1.1.2 15.8.2 15.9 9.2.3 9.2.3v-16.2c0-8.8.2-16.4.5-16.7s7.7-.7 16.4-1l15.8-.5-.2 14.4c-.2 7.9-.1 15.6.2 17.2l.6 2.7h17.8V85.91l-2.8-.5-2.8-.6.2-13.6c.3-18.2-.1-20.2-3.5-20.2-2.7 0-2.7 0-2.3-6 .6-8.3-.2-11-3.3-11-2.5 0-2.5-.1-2.5-8.5V17h-3.1c-3.1 0-3.1-.1-2.5-3.9a40.2 40.2 0 0 0 0-8.5l-.7-4.6h-11.4c-9.05 0-11.55.31-11.95 1.41zM846 42.21v8.3l2.8.3 2.7.3V68H830V51h5.5V34H846zM900.25 22.21c-.4 28.6-.4 28.8 3.2 28.8h2.8l-.5 5.9c-.8 8.1.1 10.9 3.3 11.3 2.6.3 2.7.4 2.8 8.3s.1 8 2.9 8.3l2.7.3V102l3 .6c2.8.6 2.9.8 2.3 4.9a34.36 34.36 0 0 0 .1 7.9l.7 3.6h17.9v-7.9c0-7.9 0-8 2.8-8.3s2.7-.4 3.2-8.8c.5-7.9.7-8.5 2.7-8.8 2.9-.4 3.7-3.6 3-11.3l-.5-5.9h5.8V51h6l-.2-25.3L964 .51l-8.7-.3c-8.4-.3-8.8-.2-9.2 2-.3 1.3-.4 12.7-.3 25.5l.2 23.2-2.4.3c-3.1.4-4.4 4.4-3.6 11.5.5 5.1.4 5.2-2.2 5.5-2.8.3-2.8.4-3.1 8.5-.3 7.8-.4 8.3-2.5 8.3s-2.2-.4-1.9-6.1c.5-8.4-.3-10.9-3.3-10.9-2.3 0-2.4-.2-2.7-8.3s-.3-8.2-3-8.5l-2.6-.3v-23.2c0-12.8 0-24.2-.1-25.5-.1-2.1-.5-2.2-9-2.2h-9zM990 1.21c-.2.7-.3 12.1-.2 25.3l.2 24 2.8.3 2.7.3V68h6.1l-.6 5.4a29.86 29.86 0 0 0 0 8.5c.5 2.5 1.2 3.1 3.3 3.1h2.7l-.4 8-.3 8.1 3.1 1.2 3.1 1.1V119h9c8.8 0 9-.1 9.6-2.5.4-1.4.4-5 .2-8-.4-5.2-.4-5.4 2.1-5.7s2.6-.6 3.1-8.8c.5-8.4.5-8.5 3.3-8.8l2.7-.3V68.11l2.8-.3 2.7-.3v-8.3l-.1-8.2h2.8c2.2 0 2.8-.5 2.9-2.3.4-7.4.5-42.7.1-45.5l-.4-3.2h-17.8v50.9l-2.7.3-2.8.3v8.3c0 7.8-.1 8.2-2.2 8.2-3.3 0-4.6 3.4-4.1 10.6.4 6.1.3 6.4-1.9 6.4s-2.2-.4-2.5-8.3c-.3-8.2-.3-8.2-3.1-8.5s-2.8-.5-2.1-4.7a33.62 33.62 0 0 0-.1-8.4c-.6-3.6-1-4.1-3.3-4.1h-2.7V.51l-8.8-.3c-6.45-.21-8.95.1-9.2 1zM1090.85 1.31c-.3.8-.4 4.5-.2 8.3l.3 6.9 5.5.3 5.5.3V103h-11.5v16h20.4c20.3 0 20.4 0 21-2.2a31.37 31.37 0 0 0 .6-5.8c0-7.1-.7-8-6.1-8-2.6 0-5-.4-5.4-.9-.5-.9-.7-22.7-.5-67.9V17h10.9l.6-4.4a30.23 30.23 0 0 0 0-8.5l-.7-4.1h-19.9c-15.8 0-20.1.31-20.5 1.31zM1163.05 1.71c-.6 2.3-.6 113.2 0 115.5.5 1.7 2.6 1.8 26.5 1.8h25.9V103h5c6.4 0 7.5-1.8 6.7-11.2l-.6-6.8h3c2.5 0 2.9-.4 2.9-2.8.1-7 .2-43 .1-45.5-.1-2.3-.5-2.7-3-2.7h-2.9l.5-5.9c.3-3.3.3-7.1-.1-8.5-.6-2.4-1.1-2.6-6.1-2.6h-5.5V0h-25.9c-23.9 0-26 .11-26.5 1.71zm45.6 23.5c.3 8.1.4 8.3 2.9 8.6l2.6.3v50.8l-2.9.6-2.8.7V103h-12.2c-6.8 0-12.9-.4-13.6-.8-1.3-.9-1.4-8.3-1.2-68V17h26.9zM1269.45 8.51V17H1281v86h-11.5v16h40.8l.6-3.5a26.78 26.78 0 0 0 0-8l-.6-4.5h-10.8v-8.3c-.1-18-.1-45.1-.1-61l.1-16.7h10.7l.7-3.9a40.2 40.2 0 0 0 0-8.5l-.7-4.6h-40.7zM1353.05 3.91a39.26 39.26 0 0 0 0 8.4l.7 4.6-5.9.3-5.9.3-.2 14.5c-.3 19.6-.5 19 6.3 19h5.6l-.7 4.6a40.22 40.22 0 0 0 0 8.5l.7 3.9H1393v35h-14.5c-8 0-15.4-.3-16.5-.6-1.8-.4-2-1.2-1.7-8.3l.3-7.8-4.7-.7c-8.2-1.1-13.1-.8-13.8 1a41.06 41.06 0 0 0-.6 8c0 6 .2 6.5 2.6 7.4a18.54 18.54 0 0 0 6.1 1h3.5l-.7 4a26.82 26.82 0 0 0 0 8l.7 4 23.1-.2 23.2-.3v-15l5.5-.5 5.5-.5v-34l-5.5-.3-5.5-.3.3-6a43.13 43.13 0 0 0-.2-8.5l-.6-2.4H1360l.2-8.8c0-4.8.1-12.4.2-17l.1-8.2h33.1l-.6 4.4a30.23 30.23 0 0 0 0 8.5l.7 4.1h17.8V17H1400V.51l-23.1-.3-23.1-.2z"/></g></g></symbol><symbol viewBox="0 0 38.18 26.43" id="mail" xmlns="http://www.w3.org/2000/svg"><g data-name="Layer 2"><path d="M38.18 0v26.43H0V0zM2.64 25h32.89L21.95 14.09l-2.86 2.26-2.86-2.26zM1.47 2.4V24l13.58-10.84L1.47 2.4zm1.18-.94l16.44 13 16.44-13H2.65zM36.71 24V2.4L23.13 13.16 36.71 24z" data-name="Layer 1"/></g></symbol><symbol viewBox="0 0 50.03 41.03" id="twitter" xmlns="http://www.w3.org/2000/svg"><g data-name="Layer 2"><path d="M34.23 0a10.85 10.85 0 0 0-10.85 10.84 10.65 10.65 0 0 0 .13 1.06A26.89 26.89 0 0 1 5.13 2.19a1 1 0 0 0-.86-.38 1 1 0 0 0-.79.5A10.76 10.76 0 0 0 2 7.75a10.8 10.8 0 0 0 2.2 6.41c-.26-.11-.54-.18-.78-.31a1 1 0 0 0-1.47.88v.13a10.79 10.79 0 0 0 4.72 8.84h-.1A1 1 0 0 0 5.45 25a10.87 10.87 0 0 0 7.5 7.09 18.68 18.68 0 0 1-9.59 2.66 18.77 18.77 0 0 1-2.22-.12 1 1 0 0 0-.66 1.84A28.84 28.84 0 0 0 16.1 41a28.09 28.09 0 0 0 21.56-9.47A30.09 30.09 0 0 0 45.13 12v-.84a20.94 20.94 0 0 0 4.75-5 1 1 0 0 0-1.28-1.44c-.52.23-1.12.25-1.66.44A10.61 10.61 0 0 0 48.63 2 1 1 0 0 0 47.16.88 18.74 18.74 0 0 1 41.57 3a10.76 10.76 0 0 0-7.34-3zm0 2a8.85 8.85 0 0 1 6.47 2.81 1 1 0 0 0 .94.28A20.58 20.58 0 0 0 45.38 4a8.9 8.9 0 0 1-2.56 2.34 1 1 0 0 0 .66 1.88 20.66 20.66 0 0 0 2.84-.78 19 19 0 0 1-2.81 2.5 1 1 0 0 0-.41.88v1.22a28.13 28.13 0 0 1-7 18.22 26 26 0 0 1-20 8.74 26.74 26.74 0 0 1-11.15-2.41 20.7 20.7 0 0 0 11.25-4.28 1 1 0 0 0-.59-1.78 8.76 8.76 0 0 1-7.53-4.69h.16a10.91 10.91 0 0 0 2.88-.37 1 1 0 0 0-.12-1.94 8.78 8.78 0 0 1-6.8-7.22 10.61 10.61 0 0 0 3.15.69 1 1 0 0 0 .59-1.84A8.85 8.85 0 0 1 4 7.75a8.69 8.69 0 0 1 .7-3.19 28.87 28.87 0 0 0 19.9 9.53 1 1 0 0 0 .82-.35 1 1 0 0 0 .21-.87 8.93 8.93 0 0 1-.25-2A8.83 8.83 0 0 1 34.23 2z" data-name="Layer 1"/></g></symbol></svg>