<svg xmlns="http://www.w3.org/2000/svg" viewBox="0 0 64 64"><defs><style>.cls-1{fill:#1d1d1b;}</style></defs><title>instagram</title><g id="Layer_2" data-name="Layer 2"><g id="Layer_1-2" data-name="Layer 1"><path class="cls-1" d="M58,0H6A6,6,0,0,0,0,6V58a6,6,0,0,0,6,6H58a6,6,0,0,0,6-6V6A6,6,0,0,0,58,0ZM43.75,9.78a4,4,0,0,1,4-4h5a4,4,0,0,1,4,4v6.06a4,4,0,0,1-4,4h-5a4,4,0,0,1-4-4ZM32,17.89A14.11,14.11,0,1,1,17.89,32,14.13,14.13,0,0,1,32,17.89ZM58,60H6a2,2,0,0,1-2-2V27.14H14.58A17.94,17.94,0,0,0,13.89,32a18.11,18.11,0,1,0,35.53-4.86H60V58A2,2,0,0,1,58,60Z"/></g></g></svg>