<svg xmlns="http://www.w3.org/2000/svg" viewBox="0 0 1411.45 119.11"><title>logo</title><g id="Layer_2" data-name="Layer 2"><g id="Layer_1-2" data-name="Layer 1"><path d="M.35,2.71c-.4,9.8-.5,109.5-.1,112.5l.5,3.8h17.7V51H21c2.3,0,2.4.2,1.8,4.9a34,34,0,0,0,.1,8.5l.7,3.6h10.9V85h5.6l-.1,7.9c0,4.4.3,8.2.6,8.5s2.9.9,5.8,1.3l5.1.6v15.8l9.3-.3,9.2-.3.2-57.5c0-31.6-.1-58.3-.4-59.3-.4-1.6-1.5-1.7-9.1-1.5L52,.51l-.3,33.7L51.45,68h-9.9l-.3-8.3-.3-8.2-2.9-.3c-2.7-.3-2.8-.5-2.2-4.2a39.26,39.26,0,0,0,0-8.4l-.7-4.6H24V17.51l-2.8-.3c-2.7-.3-2.8-.6-2.6-5a81.79,81.79,0,0,0,.1-8.5L18.45,0H.45Z"/><path d="M106.85,1.31c-.3.8-.4,4.5-.2,8.3l.3,6.9,5.5.3,5.5.3v85.8l-5.5.3-5.5.3v15l19.9.3c15.3.2,20.1-.1,20.8-1,1-1.6,1-11.9,0-13.5-.4-.6-3-1.3-5.7-1.5l-5-.3-.3-42.8-.2-42.7h5.4c6.1,0,6.6-.7,6.6-9.2,0-8.3,1.2-7.8-21.1-7.8C111.55,0,107.25.31,106.85,1.31Z"/><path d="M185,1.21c-.2.7-.3,27.4-.2,59.3l.2,58,9.2.3,9.2.3V93.81l-.1-25.3,5.2-.3,5.2-.3-.2,4.3c-.1,2.4-.1,6.2-.1,8.5l.1,4.2,5.7.3,5.6.3-.2,7.8-.2,7.8,3,1.2c3.1,1.1,3.1,1.2,3.1,8.9V119h8.9c9.9,0,10.1-.2,10.1-8,0-5.8-1-7.9-3.8-8.2-2.5-.3-2.5-.4-2.3-8,.1-4.4-.2-7.9-.8-8.2s-3.2-.9-5.9-1.3l-4.8-.5v-6.7c.1-9.4-.3-10.1-6.4-10.1h-5V51h10.7l.7-3.9a39.26,39.26,0,0,0,0-8.4l-.7-4.6,5.9-.3,5.9-.3v-8.3c0-8.2,0-8.2,2.6-8.2,2.2,0,2.8-.6,3.3-3.1a28.73,28.73,0,0,0,0-11.7c-.6-2.1-1.1-2.2-9.5-2.2h-8.9v16.9l-2.7.3-2.8.3V34h-11.5V51H203V.51l-8.8-.3C187.75,0,185.35.31,185,1.21Z"/><path d="M286.05,4.61a40.2,40.2,0,0,0,0,8.5l.7,3.9h-5.7c-5.1,0-5.6.2-6.2,2.5a43.44,43.44,0,0,0-.2,8.5c.4,6,.4,6-2.3,6-2.4,0-2.8.5-3.2,3.7s-.3,38.3.1,45c.2,1.8.8,2.3,3,2.3H275l-.3,8c-.4,7.9-.4,8,2.3,9a22.34,22.34,0,0,0,6.2,1h3.6l-.7,4a35.67,35.67,0,0,0,0,8l.7,4h34.4l.7-4a35.67,35.67,0,0,0,0-8l-.7-4h4.9c7.3,0,7.7-.5,7.3-9.9L333,85h2.7c1.7,0,2.8-.6,3.1-1.8.4-1.5.3-42.7-.1-47.5-.2-1.2-1.1-1.7-2.9-1.7H333V17.51l-5.8-.3-5.8-.3.6-4.4a29.54,29.54,0,0,0,0-8.4l-.7-4.1h-34.5ZM315,25.21v8.3l2.8.3,2.7.3v50.5l-3.1,1.1-3,1.2.2,7.8.2,7.8-8.9.3c-13.4.4-13,.7-12.6-8.3l.4-7.6-3.1-1.2-3.1-1.1V34.11l2.8-.3,2.7-.3V17h22Z"/><path d="M364.05.81c-.2.4-.5,27.2-.4,59.5V119h28.8c32.4,0,30,.6,30-8,0-8.4,1-8-18.9-8-9.7,0-18.5-.3-19.6-.6-2-.5-2-1.3-1.8-49.2.1-26.8,0-49.7-.3-51C381.45.11,381,0,373,0,368.35,0,364.35.41,364.05.81Z"/><path d="M470.85,2.51a43.44,43.44,0,0,0-.2,8.5c.4,6,.4,6-2.3,6s-2.8.3-3.4,5.4a29.1,29.1,0,0,0,0,8.4c.6,2.8.4,3.1-2.2,3.4-2.8.3-2.8.3-3.1,8.5s-.4,8.3-2.7,8.3c-3.3,0-3.6,1.6-3.3,19.2l.3,14.7-2.7.5a3.45,3.45,0,0,0-3.1,3.3c-.7,3.6-.8,26.3-.1,28.5.5,1.5,1.8,1.8,9.5,1.8h8.9V86.31l6.1-.7c3.4-.3,10.9-.6,16.5-.6h10.4v34h9c8.6,0,9-.1,9.1-2.3.5-7.1.6-24.7.2-27.5-.4-2.6-1.1-3.4-3.2-3.8l-2.6-.5.2-14.7c.3-17.8.1-19.2-3.2-19.2-2.3,0-2.4-.2-2.7-8.3s-.3-8.2-3.1-8.5-2.8-.6-2.6-5a81.79,81.79,0,0,0,.1-8.5c-.2-3.4-.4-3.7-3.2-3.7s-2.9,0-2.3-4.9a34,34,0,0,0-.1-8.5l-.7-3.6H483C471.55,0,471.45,0,470.85,2.51ZM487.65,40c-.6,8.2.2,11,3.2,11,2.4,0,2.5.3,2.8,8.5L494,68H472l.2-8.2c.1-8.1.2-8.3,2.7-8.6,2-.3,2.7-1,3.2-3.9a33.12,33.12,0,0,0,.1-8.4l-.6-4.9h10.5Z"/><path d="M548.25,3.21c0,1.8,0,5.7.1,8.5l.3,5.3h-5.5c-4.4,0-5.7.4-6.1,1.7-.3,1-.5,7.9-.5,15.3s.2,14.3.5,15.2c.4,1.4,1.7,1.8,6.1,1.8h5.6l-.7,4.6a40.2,40.2,0,0,0,0,8.5l.7,3.9h39.3v35h-14.5c-8,0-15.5-.3-16.6-.6-1.8-.4-2-1.2-1.7-8.3l.3-7.8-4.7-.7c-8.2-1.1-13.1-.8-13.8,1-.9,2.4-.7,12.7.3,14.3.5.7,3.2,1.6,6.1,1.9l5.2.5-.6,3.8a34.78,34.78,0,0,0,0,7.9l.7,4h46.9l-.4-8-.3-7.9,5.5-.3,5.5-.3v-34l-5.5-.5-5.5-.5v-16l-19.7-.3-19.8-.2V17h33.2l-.6,4.3a30.24,30.24,0,0,0,0,8.5l.7,4.2h17.5l.4-3.9a60.21,60.21,0,0,0,0-8.5l-.4-4.6H595V.51l-23.2-.3L548.45,0Z"/><path d="M727,3.91a40.22,40.22,0,0,0,0,8.5l.7,4.5-5.8.3-5.9.3v33l5.8.3,5.8.3-.7,4.9a33.56,33.56,0,0,0,0,8.4l.7,3.6H767v35h-14.5c-8,0-15.4-.3-16.5-.6-1.9-.5-2-1.2-1.7-7.9.5-8.8.6-8.7-10.6-8.9l-7.7-.1-.3,7.8c-.3,7.5-.2,7.7,2.3,8.7a19.35,19.35,0,0,0,6,1h3.5l-.6,4.4a30.51,30.51,0,0,0,0,8l.7,3.6,23.2-.2,23.2-.3v-15l5.5-.5,5.5-.5v-34l-5.6-.3-5.5-.3.4-5.9a43.13,43.13,0,0,0-.2-8.5l-.6-2.5H734V17h33.4l-.6,4.9a34,34,0,0,0,.1,8.5l.7,3.6h17.9V17h-11.6l.4-6a43.44,43.44,0,0,0-.2-8.5l-.6-2.5h-45.8Z"/><path d="M828.85,1.41c-.3.8-.4,4.7-.2,8.5L829,17h-2.7c-3.4,0-4.2,2.5-3.6,11,.4,6,.4,6-2.3,6-2.4,0-2.7.4-3.4,4.6a33.69,33.69,0,0,0,0,8.4c.6,3.7.5,3.9-2.2,4.2l-2.8.3-.3,16.5-.2,16.6-3,1.1-2.9,1.1.2,15.8.2,15.9,9.2.3,9.2.3v-16.2c0-8.8.2-16.4.5-16.7s7.7-.7,16.4-1l15.8-.5-.2,14.4c-.2,7.9-.1,15.6.2,17.2l.6,2.7h17.8V85.91l-2.8-.5-2.8-.6.2-13.6c.3-18.2-.1-20.2-3.5-20.2-2.7,0-2.7,0-2.3-6,.6-8.3-.2-11-3.3-11-2.5,0-2.5-.1-2.5-8.5V17h-3.1c-3.1,0-3.1-.1-2.5-3.9a40.2,40.2,0,0,0,0-8.5l-.7-4.6h-11.4C831.75,0,829.25.31,828.85,1.41ZM846,42.21v8.3l2.8.3,2.7.3V68H830V51h5.5V34H846Z"/><path d="M900.25,22.21c-.4,28.6-.4,28.8,3.2,28.8h2.8l-.5,5.9c-.8,8.1.1,10.9,3.3,11.3,2.6.3,2.7.4,2.8,8.3s.1,8,2.9,8.3l2.7.3V102l3,.6c2.8.6,2.9.8,2.3,4.9a34.36,34.36,0,0,0,.1,7.9l.7,3.6h17.9v-7.9c0-7.9,0-8,2.8-8.3s2.7-.4,3.2-8.8c.5-7.9.7-8.5,2.7-8.8,2.9-.4,3.7-3.6,3-11.3l-.5-5.9h5.8V51h6l-.2-25.3L964,.51l-8.7-.3c-8.4-.3-8.8-.2-9.2,2-.3,1.3-.4,12.7-.3,25.5l.2,23.2-2.4.3c-3.1.4-4.4,4.4-3.6,11.5.5,5.1.4,5.2-2.2,5.5-2.8.3-2.8.4-3.1,8.5-.3,7.8-.4,8.3-2.5,8.3s-2.2-.4-1.9-6.1c.5-8.4-.3-10.9-3.3-10.9-2.3,0-2.4-.2-2.7-8.3s-.3-8.2-3-8.5l-2.6-.3V27.71c0-12.8,0-24.2-.1-25.5-.1-2.1-.5-2.2-9-2.2h-9Z"/><path d="M990,1.21c-.2.7-.3,12.1-.2,25.3l.2,24,2.8.3,2.7.3V68h6.1l-.6,5.4a29.86,29.86,0,0,0,0,8.5c.5,2.5,1.2,3.1,3.3,3.1h2.7l-.4,8-.3,8.1,3.1,1.2,3.1,1.1V119h9c8.8,0,9-.1,9.6-2.5.4-1.4.4-5,.2-8-.4-5.2-.4-5.4,2.1-5.7s2.6-.6,3.1-8.8c.5-8.4.5-8.5,3.3-8.8l2.7-.3V68.11l2.8-.3,2.7-.3v-8.3l-.1-8.2h2.8c2.2,0,2.8-.5,2.9-2.3.4-7.4.5-42.7.1-45.5l-.4-3.2h-17.8v50.9l-2.7.3-2.8.3v8.3c0,7.8-.1,8.2-2.2,8.2-3.3,0-4.6,3.4-4.1,10.6.4,6.1.3,6.4-1.9,6.4s-2.2-.4-2.5-8.3c-.3-8.2-.3-8.2-3.1-8.5s-2.8-.5-2.1-4.7a33.62,33.62,0,0,0-.1-8.4c-.6-3.6-1-4.1-3.3-4.1H1008V.51l-8.8-.3C992.75,0,990.25.31,990,1.21Z"/><path d="M1090.85,1.31c-.3.8-.4,4.5-.2,8.3l.3,6.9,5.5.3,5.5.3V103h-11.5v16h20.4c20.3,0,20.4,0,21-2.2a31.37,31.37,0,0,0,.6-5.8c0-7.1-.7-8-6.1-8-2.6,0-5-.4-5.4-.9-.5-.9-.7-22.7-.5-67.9V17h10.9l.6-4.4a30.23,30.23,0,0,0,0-8.5l-.7-4.1h-19.9C1095.55,0,1091.25.31,1090.85,1.31Z"/><path d="M1163.05,1.71c-.6,2.3-.6,113.2,0,115.5.5,1.7,2.6,1.8,26.5,1.8h25.9V103h5c6.4,0,7.5-1.8,6.7-11.2l-.6-6.8h3c2.5,0,2.9-.4,2.9-2.8.1-7,.2-43,.1-45.5-.1-2.3-.5-2.7-3-2.7h-2.9l.5-5.9c.3-3.3.3-7.1-.1-8.5-.6-2.4-1.1-2.6-6.1-2.6h-5.5V0h-25.9C1165.65,0,1163.55.11,1163.05,1.71Zm45.6,23.5c.3,8.1.4,8.3,2.9,8.6l2.6.3v50.8l-2.9.6-2.8.7V103h-12.2c-6.8,0-12.9-.4-13.6-.8-1.3-.9-1.4-8.3-1.2-68V17h26.9Z"/><path d="M1269.45,8.51V17H1281v86h-11.5v16h40.8l.6-3.5a26.78,26.78,0,0,0,0-8l-.6-4.5h-10.8v-8.3c-.1-18-.1-45.1-.1-61l.1-16.7h10.7l.7-3.9a40.2,40.2,0,0,0,0-8.5l-.7-4.6h-40.7Z"/><path d="M1353.05,3.91a39.26,39.26,0,0,0,0,8.4l.7,4.6-5.9.3-5.9.3-.2,14.5c-.3,19.6-.5,19,6.3,19h5.6l-.7,4.6a40.22,40.22,0,0,0,0,8.5l.7,3.9H1393v35h-14.5c-8,0-15.4-.3-16.5-.6-1.8-.4-2-1.2-1.7-8.3l.3-7.8-4.7-.7c-8.2-1.1-13.1-.8-13.8,1a41.06,41.06,0,0,0-.6,8c0,6,.2,6.5,2.6,7.4a18.54,18.54,0,0,0,6.1,1h3.5l-.7,4a26.82,26.82,0,0,0,0,8l.7,4,23.1-.2,23.2-.3v-15l5.5-.5,5.5-.5v-34l-5.5-.3-5.5-.3.3-6a43.13,43.13,0,0,0-.2-8.5l-.6-2.4H1360l.2-8.8c0-4.8.1-12.4.2-17l.1-8.2h33.1l-.6,4.4a30.23,30.23,0,0,0,0,8.5l.7,4.1h17.8V17H1400V.51l-23.1-.3-23.1-.2Z"/></g></g></svg>