<svg xmlns="http://www.w3.org/2000/svg" viewBox="0 0 50.03 41.03"><title>twitter</title><g id="Layer_2" data-name="Layer 2"><g id="Layer_1-2" data-name="Layer 1"><g id="surface1"><path d="M34.23,0A10.85,10.85,0,0,0,23.38,10.84a10.65,10.65,0,0,0,.13,1.06A26.89,26.89,0,0,1,5.13,2.19a1,1,0,0,0-.86-.38,1,1,0,0,0-.79.5A10.76,10.76,0,0,0,2,7.75,10.8,10.8,0,0,0,4.2,14.16c-.26-.11-.54-.18-.78-.31a1,1,0,0,0-1.47.88v.13a10.79,10.79,0,0,0,4.72,8.84H6.57A1,1,0,0,0,5.45,25a10.87,10.87,0,0,0,7.5,7.09,18.68,18.68,0,0,1-9.59,2.66,18.77,18.77,0,0,1-2.22-.12,1,1,0,0,0-.66,1.84A28.84,28.84,0,0,0,16.1,41a28.09,28.09,0,0,0,21.56-9.47A30.09,30.09,0,0,0,45.13,12c0-.29,0-.56,0-.84a20.94,20.94,0,0,0,4.75-5A1,1,0,0,0,48.6,4.72c-.52.23-1.12.25-1.66.44A10.61,10.61,0,0,0,48.63,2,1,1,0,0,0,47.16.88,18.74,18.74,0,0,1,41.57,3,10.76,10.76,0,0,0,34.23,0Zm0,2A8.85,8.85,0,0,1,40.7,4.81a1,1,0,0,0,.94.28A20.58,20.58,0,0,0,45.38,4a8.9,8.9,0,0,1-2.56,2.34,1,1,0,0,0,.66,1.88,20.66,20.66,0,0,0,2.84-.78,19,19,0,0,1-2.81,2.5,1,1,0,0,0-.41.88c0,.41,0,.81,0,1.22a28.13,28.13,0,0,1-7,18.22A26,26,0,0,1,16.1,39,26.74,26.74,0,0,1,4.95,36.59,20.7,20.7,0,0,0,16.2,32.31a1,1,0,0,0-.59-1.78,8.76,8.76,0,0,1-7.53-4.69h.16a10.91,10.91,0,0,0,2.88-.37A1,1,0,0,0,11,23.53,8.78,8.78,0,0,1,4.2,16.31,10.61,10.61,0,0,0,7.35,17a1,1,0,0,0,.59-1.84A8.85,8.85,0,0,1,4,7.75,8.69,8.69,0,0,1,4.7,4.56,28.87,28.87,0,0,0,24.6,14.09a1,1,0,0,0,.82-.35,1,1,0,0,0,.21-.87,8.93,8.93,0,0,1-.25-2A8.83,8.83,0,0,1,34.23,2Z"/></g></g></g></svg>